# xmcd
#
# Track frame offsets:
#	150
#	13224
#	28455
#	51551
#	81814
#	117131
#
# Disc length: 1913 seconds
#
# Revision: 7
# Processed by: cddbd v1.5.2PL0 Copyright (c) Steve Scherf et al.
# Submitted via: EasyCDDAExtractor 10.2.0.1
#
DISCID=4f077706
DTITLE=Kosmonova - Danse avec moi CDM
DYEAR=2000
DGENRE=Dance
TTITLE0=Danse avec moi (Radio Edit)
TTITLE1=Danse avec moi (Airscape Radio Mix)
TTITLE2=Danse avec moi (Extended Mix)
TTITLE3=Danse avec moi (Airscape Remix)
TTITLE4=Danse avec moi (Plug 'N' Play Remix)
TTITLE5=Danse avec moi (Fiocco Remix)
EXTD=YEAR: 2000
EXTT0=
EXTT1=
EXTT2=
EXTT3=
EXTT4=
EXTT5=
PLAYORDER=
